# xmcd CD database file generated by Grip 2.95
# 
# Track frame offsets:
#       150
#       16351
#       36561
#       50782
#       69533
#       87614
#       105400
#       120399
#       136222
#       153490
# 
# Disc length: 2238 seconds
# 
# Revision: 3
# Processed by: cddbd v1.4b41PL3 Copyright (c) Steve Scherf et al.
# Submitted via: Grip 2.95
# 
DISCID=8808bc0a
DTITLE=Bullock Sisters - A Heart Divided
DYEAR=1900
DGENRE=
TTITLE0=Prove You Wrong
TTITLE1=From Broken Heart to Broken Heart
TTITLE2=I Don't Do Lonely
TTITLE3=A Heart Divided
TTITLE4=Not Another Heartache
TTITLE5=Pushin' My Buttons
TTITLE6=Not After You
TTITLE7=Nothin' New Under the Moon
TTITLE8=I'm There
TTITLE9=Creative Romance
EXTD=
EXTT0=
EXTT1=
EXTT2=
EXTT3=
EXTT4=
EXTT5=
EXTT6=
EXTT7=
EXTT8=
EXTT9=
PLAYORDER=
